<?xml version="1.0" encoding="UTF-8" ?> <!DOCTYPE svg PUBLIC "-//W3C//DTD SVG 1.1//EN" "http://www.w3.org/Graphics/SVG/1.1/DTD/svg11.dtd"> <svg width="512pt" height="512pt" viewBox="0 0 512 512" version="1.1" xmlns="http://www.w3.org/2000/svg"> <g id="#ffffffff"> <path fill="#ffffff" opacity="1.00" d=" M 101.89 5.08 C 104.97 0.11 112.29 -1.68 117.02 2.04 C 133.86 16.64 155.13 24.93 176.51 30.28 C 200.42 36.95 225.55 40.53 247.74 52.22 C 267.61 62.29 282.00 80.63 291.41 100.43 C 297.05 112.71 299.95 126.39 298.27 139.89 C 297.31 151.11 292.44 161.74 285.65 170.62 C 276.97 181.97 264.86 189.99 252.45 196.77 C 267.74 222.48 280.28 249.92 290.17 278.16 C 297.52 263.70 305.58 249.50 315.41 236.57 C 307.26 228.67 301.14 218.43 299.23 207.15 C 297.24 195.84 300.62 184.16 306.46 174.49 C 316.93 157.33 334.96 146.44 353.47 139.77 C 375.24 132.08 398.96 129.65 419.23 117.95 C 424.85 115.18 429.70 111.19 435.01 107.91 C 440.30 105.05 447.31 108.27 449.37 113.74 C 454.12 124.53 456.54 136.26 457.85 147.94 C 460.33 177.52 456.89 207.77 446.32 235.59 C 442.66 244.64 438.12 253.45 431.89 261.02 C 420.24 273.97 404.93 284.44 387.49 287.33 C 375.34 289.46 362.30 286.87 352.16 279.77 C 342.43 273.22 335.08 263.63 329.79 253.27 C 316.75 271.88 306.52 292.35 298.36 313.54 C 296.05 320.58 285.79 322.27 280.89 317.04 C 278.11 314.06 277.70 309.82 276.47 306.11 C 267.14 274.56 254.01 244.17 238.11 215.39 C 231.42 225.66 222.41 234.79 211.27 240.15 C 202.68 244.71 192.67 245.98 183.08 245.25 C 169.18 244.24 156.28 237.89 145.02 230.02 C 129.80 218.73 116.24 204.61 107.73 187.53 C 93.83 159.09 87.86 127.43 85.97 96.02 C 84.83 75.95 86.39 55.75 90.50 36.08 C 93.20 25.39 96.55 14.78 101.89 5.08 M 115.03 27.75 C 111.32 39.17 108.74 50.97 107.54 62.92 C 105.85 86.70 106.68 110.81 111.94 134.13 C 114.80 149.13 119.61 163.77 126.26 177.52 C 129.32 183.05 132.47 188.59 136.72 193.32 C 146.01 204.18 157.06 213.84 170.08 219.98 C 178.78 223.56 188.74 225.97 197.90 222.57 C 211.25 218.27 219.70 206.03 226.35 194.42 C 203.05 156.92 174.90 122.38 141.87 93.01 C 136.32 88.28 138.43 78.77 144.72 75.79 C 148.37 74.45 152.96 74.48 156.01 77.15 C 189.24 106.64 218.01 141.01 241.74 178.54 C 245.67 175.82 250.20 174.08 254.00 171.15 C 263.48 164.73 272.20 156.06 275.59 144.85 C 279.43 133.82 276.87 121.87 272.80 111.30 C 268.10 100.68 261.50 90.92 253.44 82.56 C 239.15 68.82 219.49 63.39 200.82 58.53 C 191.80 56.81 183.03 54.04 174.06 52.14 C 153.38 46.83 132.92 39.63 115.03 27.75 M 407.89 146.13 C 386.34 154.12 362.43 155.99 342.68 168.51 C 331.86 175.20 321.32 185.49 320.28 198.87 C 319.54 206.88 323.69 214.14 328.77 219.97 C 342.23 203.99 358.57 190.28 377.05 180.47 C 380.54 178.48 384.91 177.13 388.69 179.20 C 396.53 182.04 396.89 194.84 389.29 198.20 C 372.02 206.85 357.13 219.61 344.51 234.13 C 346.17 239.26 348.94 243.91 351.59 248.57 C 356.66 256.64 363.97 264.08 373.57 266.24 C 382.33 268.21 391.12 264.93 398.77 260.87 C 408.57 255.00 417.37 247.01 422.47 236.64 C 429.38 222.75 433.56 207.57 435.56 192.22 C 437.82 177.25 438.35 161.95 436.32 146.93 C 435.71 142.57 434.69 138.29 434.11 133.93 C 425.88 138.98 417.05 143.09 407.89 146.13 Z" /> <path fill="#ffffff" opacity="1.00" d=" M 0.00 309.44 C 0.06 303.72 5.26 298.75 10.93 298.80 C 37.95 298.75 64.98 298.82 92.00 298.77 C 95.93 298.61 100.32 298.64 103.29 301.65 C 108.85 306.14 106.52 313.97 107.04 320.12 C 123.04 320.09 139.04 320.12 155.03 320.11 C 173.92 319.65 193.37 322.14 210.45 330.61 C 221.40 335.65 230.49 343.77 239.01 352.13 C 261.34 352.30 283.68 352.13 306.01 351.99 C 314.68 352.11 323.74 351.14 331.88 354.85 C 345.75 360.84 353.04 376.67 352.17 391.26 C 382.24 382.97 412.23 374.35 442.32 366.11 C 451.63 363.27 461.70 361.09 471.31 363.88 C 484.56 367.55 494.19 378.02 503.70 387.31 C 507.21 391.04 512.41 394.50 512.00 400.29 L 512.00 400.54 C 512.24 404.91 509.14 408.45 505.39 410.25 C 473.26 426.35 441.32 442.84 409.51 459.58 C 386.57 471.49 363.74 483.66 340.20 494.37 C 320.62 503.05 300.09 510.89 278.47 512.00 L 267.98 512.00 C 248.37 511.29 229.40 505.66 210.73 500.08 C 175.91 488.93 141.71 475.93 106.95 464.62 C 106.93 468.17 107.38 472.10 105.19 475.17 C 103.13 478.04 99.67 480.13 96.06 479.95 C 67.66 480.07 39.26 479.94 10.87 480.01 C 5.41 480.05 0.51 475.52 0.00 470.10 L 0.00 309.44 M 21.57 319.92 C 21.60 366.19 21.46 412.47 21.64 458.74 C 42.92 458.46 64.20 458.69 85.48 458.63 C 85.38 412.40 85.48 366.17 85.43 319.94 C 64.14 320.11 42.85 319.95 21.57 319.92 M 107.14 341.36 C 106.69 347.89 107.18 354.44 106.95 360.98 C 107.14 387.98 106.80 414.98 107.07 441.99 C 132.61 450.53 157.99 459.51 183.42 468.36 C 204.63 475.66 225.86 483.12 247.86 487.70 C 263.11 490.46 278.89 490.84 294.11 487.69 C 307.54 484.55 320.46 479.62 332.99 473.91 C 350.91 465.86 368.29 456.67 385.74 447.67 C 418.12 430.63 450.54 413.66 483.17 397.10 C 476.48 391.35 469.70 383.21 459.99 383.82 C 451.40 384.49 443.46 388.28 435.07 390.03 C 404.17 398.68 373.27 407.40 342.35 415.93 C 338.11 420.09 333.17 423.94 327.24 425.23 C 321.66 426.99 315.76 426.42 310.01 426.50 C 274.30 426.50 238.59 426.51 202.88 426.50 C 197.23 426.67 192.07 421.75 192.07 416.09 C 191.77 410.22 197.18 405.14 202.94 405.22 C 241.61 405.20 280.29 405.22 318.96 405.21 C 323.04 405.00 326.95 402.38 328.58 398.61 C 331.90 392.56 331.51 384.85 328.11 378.92 C 326.16 375.35 322.10 373.12 318.06 373.21 C 290.04 373.25 262.03 373.44 234.01 373.18 C 228.58 373.27 225.36 368.51 221.60 365.41 C 213.84 357.36 204.54 350.59 193.91 346.88 C 180.62 341.75 166.11 341.34 152.03 341.44 C 137.07 341.39 122.10 341.54 107.14 341.36 Z" /> </g> </svg>
