<?xml version="1.0" encoding="UTF-8" ?> <!DOCTYPE svg PUBLIC "-//W3C//DTD SVG 1.1//EN" "http://www.w3.org/Graphics/SVG/1.1/DTD/svg11.dtd"> <svg width="512pt" height="512pt" viewBox="0 0 512 512" version="1.1" xmlns="http://www.w3.org/2000/svg"> <g id="#ffffffff"> <path fill="#ffffff" opacity="1.00" d=" M 168.90 57.59 C 186.28 50.67 204.47 45.82 222.99 43.18 C 227.67 42.59 232.38 45.69 234.04 50.05 C 235.33 54.34 234.45 58.92 234.69 63.33 C 248.83 61.81 263.17 61.84 277.31 63.33 C 277.35 59.83 277.18 56.33 277.37 52.83 C 277.67 47.13 283.40 42.44 289.05 43.19 C 308.36 45.96 327.35 51.07 345.37 58.54 C 349.10 60.04 351.88 63.81 351.87 67.87 C 351.95 73.54 351.87 79.21 351.87 84.87 C 369.28 93.76 385.56 104.88 399.97 118.10 C 441.10 155.48 466.65 209.49 468.93 265.08 C 479.18 266.63 488.94 271.33 496.42 278.53 C 505.84 287.41 511.22 300.02 512.00 312.86 L 512.00 353.77 C 505.56 381.77 492.59 409.39 470.52 428.45 C 457.43 439.84 441.65 447.77 425.23 453.12 C 404.43 459.87 382.67 463.08 360.97 465.21 C 336.73 467.49 312.37 468.26 288.04 468.64 C 259.69 469.10 231.32 468.93 202.98 468.22 C 172.02 467.18 140.90 465.54 110.47 459.35 C 84.34 454.00 58.11 444.29 38.43 425.69 C 18.21 406.94 6.57 380.85 0.00 354.49 L 0.00 313.28 C 0.57 305.06 2.59 296.87 6.80 289.74 C 14.28 276.53 28.07 267.25 43.07 265.08 C 44.51 232.41 53.75 200.14 69.69 171.60 C 89.56 135.93 119.87 106.15 155.99 87.09 C 157.31 86.39 158.68 85.74 159.90 84.86 C 160.50 78.56 159.57 72.17 160.36 65.87 C 161.19 61.63 164.96 58.80 168.90 57.59 M 181.54 75.56 C 181.26 145.67 181.51 215.80 181.41 285.91 C 181.47 292.54 174.26 297.93 167.92 295.91 C 163.20 294.69 159.73 290.00 160.07 285.11 C 160.07 226.50 160.05 167.89 160.08 109.27 C 132.64 125.08 109.34 147.90 92.76 174.86 C 74.48 204.49 64.33 239.15 64.20 274.00 C 64.13 297.09 64.20 320.19 64.17 343.29 C 152.96 343.30 241.76 343.23 330.56 343.33 C 330.54 254.08 330.71 164.82 330.47 75.57 C 320.08 71.83 309.45 68.80 298.66 66.46 C 298.70 100.65 298.66 134.84 298.68 169.03 C 299.81 188.86 285.28 208.05 265.88 212.30 C 253.41 215.37 239.62 212.33 229.60 204.30 C 219.51 196.44 213.28 183.85 213.33 171.04 C 213.32 136.18 213.31 101.32 213.34 66.46 C 202.55 68.79 191.93 71.83 181.54 75.56 M 234.70 84.73 C 234.70 113.47 234.70 142.21 234.69 170.95 C 234.73 178.72 239.34 186.27 246.31 189.74 C 252.50 193.03 260.32 192.88 266.38 189.36 C 272.97 185.77 277.26 178.46 277.30 170.96 C 277.30 142.22 277.30 113.47 277.30 84.73 C 263.15 83.20 248.85 83.20 234.70 84.73 M 351.84 109.19 C 351.95 187.22 351.87 265.25 351.88 343.28 C 383.86 343.27 415.84 343.30 447.82 343.27 C 447.67 318.25 447.94 293.23 447.68 268.21 C 446.55 236.21 437.05 204.60 420.62 177.14 C 403.95 149.14 380.05 125.51 351.84 109.19 M 21.58 313.05 C 21.43 323.14 21.56 333.23 21.51 343.32 C 28.61 343.24 35.70 343.31 42.80 343.28 C 42.75 324.49 42.82 305.70 42.76 286.92 C 31.11 290.02 22.08 300.96 21.58 313.05 M 469.25 286.90 C 469.17 305.69 469.26 324.48 469.20 343.27 C 476.29 343.31 483.39 343.24 490.49 343.32 C 490.44 333.23 490.58 323.14 490.42 313.05 C 489.92 300.95 480.88 290.04 469.25 286.90 M 25.20 364.60 C 30.69 380.36 38.43 395.72 50.35 407.63 C 66.64 424.23 89.17 432.75 111.46 437.70 C 130.68 441.98 150.32 443.95 169.94 445.33 C 198.57 447.14 227.28 447.44 255.97 447.50 C 285.78 447.44 315.62 447.13 345.38 445.10 C 369.13 443.29 393.02 440.63 415.89 433.65 C 432.98 428.40 449.60 420.16 462.12 407.14 C 473.79 395.31 481.36 380.14 486.80 364.60 C 332.93 364.67 179.07 364.67 25.20 364.60 Z" /> <path fill="#ffffff" opacity="1.00" d=" M 380.10 167.22 C 388.60 164.86 396.87 175.08 392.94 182.95 C 390.01 190.07 379.32 191.37 374.82 185.10 C 369.12 179.54 372.21 168.71 380.10 167.22 Z" /> <path fill="#ffffff" opacity="1.00" d=" M 396.49 194.66 C 401.24 193.17 406.85 195.49 409.03 199.98 C 420.13 222.40 426.09 247.33 426.54 272.34 C 426.56 285.53 426.57 298.73 426.54 311.92 C 426.45 318.10 420.00 323.23 413.96 321.88 C 409.53 321.12 405.84 317.31 405.30 312.84 C 404.55 291.54 406.78 270.00 402.82 248.92 C 400.35 235.16 395.92 221.77 389.78 209.23 C 386.98 203.63 390.54 196.28 396.49 194.66 Z" /> <path fill="#ffffff" opacity="1.00" d=" M 166.44 306.66 C 173.31 303.23 182.07 309.42 181.46 316.98 C 182.01 324.72 172.84 330.72 166.01 326.94 C 157.85 323.34 158.11 309.91 166.44 306.66 Z" /> </g> </svg>
