<?xml version="1.0" encoding="UTF-8" ?> <!DOCTYPE svg PUBLIC "-//W3C//DTD SVG 1.1//EN" "http://www.w3.org/Graphics/SVG/1.1/DTD/svg11.dtd"> <svg width="512pt" height="512pt" viewBox="0 0 512 512" version="1.1" xmlns="http://www.w3.org/2000/svg"> <g id="#ffffffff"> <path fill="#ffffff" opacity="1.00" d=" M 331.12 29.64 C 384.11 19.73 437.17 10.22 490.15 0.27 C 495.42 -0.91 500.72 2.69 502.61 7.53 C 503.13 9.98 502.88 12.51 502.93 15.00 C 502.90 59.02 502.94 103.05 502.91 147.07 C 502.94 150.90 500.19 154.35 496.76 155.83 C 492.44 158.02 487.63 156.03 483.19 155.38 C 470.39 153.54 457.81 150.40 445.00 148.52 C 420.73 143.91 396.43 139.49 372.12 135.09 C 354.39 131.52 336.49 128.86 318.82 125.02 C 313.14 123.19 311.34 116.78 312.02 111.40 C 294.31 111.36 276.60 111.39 258.88 111.39 C 258.89 115.02 258.89 118.65 258.89 122.29 C 277.84 123.33 296.22 132.06 308.78 146.32 C 320.56 159.24 327.13 176.58 327.27 194.03 C 327.26 287.36 327.26 380.68 327.27 474.01 C 327.38 478.85 327.30 483.81 325.68 488.45 C 321.99 501.36 309.59 511.16 296.22 512.00 L 129.92 512.00 C 115.11 511.72 101.75 500.10 98.60 485.77 C 97.50 478.55 98.16 471.24 98.00 463.98 C 98.01 373.63 97.96 283.28 98.04 192.93 C 98.00 169.88 110.60 147.52 129.63 134.72 C 140.33 127.23 153.18 123.19 166.17 122.28 C 166.18 111.60 166.08 100.93 166.23 90.25 C 159.92 94.25 152.51 96.05 145.09 96.14 C 130.05 96.01 114.92 99.46 101.56 106.41 C 73.19 120.61 53.50 150.31 51.28 181.94 C 50.66 192.46 51.19 203.00 50.93 213.54 C 55.62 213.66 60.32 213.39 65.01 213.66 C 70.28 213.92 74.94 218.81 74.61 224.13 C 74.62 257.04 74.62 289.95 74.62 322.86 C 75.02 328.60 69.60 334.00 63.85 333.55 C 49.28 333.57 34.70 333.57 20.12 333.55 C 14.01 334.04 8.60 328.05 9.09 322.07 C 9.12 289.68 9.12 257.30 9.09 224.91 C 8.78 220.61 11.51 216.44 15.29 214.54 C 19.74 212.87 24.59 213.77 29.23 213.56 C 29.22 204.12 29.17 194.67 29.25 185.23 C 29.87 167.91 34.23 150.64 42.48 135.37 C 56.41 108.69 81.37 88.11 110.13 79.31 C 105.58 74.50 103.19 68.17 101.63 61.85 C 98.31 47.54 103.05 31.72 113.57 21.49 C 121.51 13.43 132.73 8.96 144.00 8.77 C 154.56 8.78 165.06 12.58 173.04 19.55 C 177.42 15.66 183.01 12.90 188.97 12.91 C 204.66 12.87 220.35 12.89 236.03 12.91 C 246.84 12.91 256.88 21.34 258.72 31.97 C 259.10 36.57 258.81 41.18 258.89 45.78 C 276.60 45.78 294.30 45.82 312.01 45.76 C 312.11 42.03 311.65 37.51 314.83 34.83 C 319.00 30.39 325.61 30.83 331.12 29.64 M 453.88 29.40 C 441.23 31.17 428.82 34.35 416.17 36.12 C 404.81 38.21 393.51 40.67 382.08 42.39 C 366.03 45.73 349.81 48.13 333.75 51.47 C 333.82 69.56 333.79 87.65 333.77 105.73 C 382.91 114.71 432.03 123.85 481.18 132.80 C 481.14 96.58 481.15 60.36 481.18 24.14 C 472.08 25.93 462.98 27.64 453.88 29.40 M 137.47 31.78 C 127.31 35.11 120.41 46.47 122.88 57.02 C 125.31 69.06 138.87 77.38 150.65 73.35 C 161.98 70.29 169.04 56.95 165.02 45.89 C 161.87 34.67 148.44 27.68 137.47 31.78 M 188.37 35.28 C 188.25 35.95 188.00 37.29 187.87 37.96 C 187.91 66.04 187.88 94.13 187.89 122.21 C 204.30 122.21 220.70 122.21 237.11 122.21 C 237.03 93.23 237.25 64.24 237.00 35.27 C 224.70 34.50 212.33 35.30 200.00 34.95 C 196.13 35.08 192.21 34.80 188.37 35.28 M 258.88 67.62 C 258.89 74.88 258.90 82.14 258.88 89.41 C 276.61 89.41 294.34 89.43 312.06 89.39 C 312.12 82.14 311.80 74.89 312.07 67.64 C 294.34 67.60 276.61 67.62 258.88 67.62 M 155.10 146.46 C 142.65 150.30 131.87 159.26 125.80 170.80 C 120.18 180.44 119.41 191.94 119.78 202.85 C 181.67 202.84 243.56 202.83 305.45 202.85 C 306.19 190.21 304.21 176.90 296.69 166.40 C 287.64 152.58 271.36 144.05 254.88 144.00 C 229.25 144.05 203.62 143.94 177.99 143.98 C 170.31 143.86 162.44 143.88 155.10 146.46 M 119.79 224.89 C 119.78 295.84 119.81 366.79 119.78 437.73 C 181.69 437.70 243.60 437.83 305.51 437.67 C 305.35 411.72 305.47 385.78 305.45 359.83 C 275.62 359.86 245.79 359.83 215.96 359.85 C 211.10 360.06 205.80 356.87 204.84 351.88 C 202.83 345.71 207.45 338.45 214.05 338.15 C 244.51 338.05 274.98 338.14 305.44 338.11 C 305.44 331.12 305.43 324.13 305.45 317.15 C 289.26 317.14 273.08 317.21 256.90 317.11 C 250.74 316.99 245.49 311.20 246.53 304.99 C 246.74 299.22 252.47 294.95 258.00 295.31 C 273.83 295.33 289.66 295.32 305.49 295.31 C 305.38 271.84 305.47 248.36 305.44 224.89 C 243.56 224.89 181.67 224.89 119.79 224.89 M 31.06 235.41 C 31.22 260.83 31.22 286.26 31.06 311.69 C 38.34 311.76 45.61 311.78 52.89 311.68 C 52.68 286.25 52.80 260.81 52.83 235.38 C 45.57 235.40 38.32 235.34 31.06 235.41 M 119.76 459.55 C 119.84 466.04 119.73 472.53 119.81 479.01 C 120.04 484.93 125.03 489.89 130.95 490.13 C 183.62 490.20 236.28 490.13 288.94 490.16 C 291.85 490.13 294.86 490.43 297.65 489.39 C 302.35 487.85 305.64 482.93 305.45 478.03 C 305.47 471.87 305.37 465.72 305.51 459.58 C 243.59 459.53 181.68 459.58 119.76 459.55 Z" /> <path fill="#ffffff" opacity="1.00" d=" M 211.44 295.64 C 216.65 294.27 223.14 296.38 225.23 301.68 C 227.67 306.22 225.69 311.94 221.93 315.11 C 218.51 317.11 214.20 317.91 210.43 316.39 C 204.10 314.63 201.36 306.17 204.78 300.74 C 205.94 297.99 208.76 296.55 211.44 295.64 Z" /> </g> </svg>
