<svg xmlns="http://www.w3.org/2000/svg" viewBox="0 0 440 120" fill="none">
  <!-- Outer arc - teal top -->
  <path d="M60 8 A52 52 0 0 1 108 52" stroke="#1a8a8a" stroke-width="14" fill="none"/>
  <!-- Outer arc - orange segment -->
  <path d="M60 8 A52 52 0 0 0 8 60" stroke="#f5a623" stroke-width="14" fill="none"/>
  <!-- Outer arc - teal bottom -->
  <path d="M8 60 A52 52 0 0 0 52 108" stroke="#1a8a8a" stroke-width="14" fill="none"/>
  <!-- Inner circle of 'a' -->
  <circle cx="68" cy="64" r="20" stroke="#1a8a8a" stroke-width="7" fill="none"/>
  <!-- 'ura' - outlined Montserrat Regular 48px (was <text x="102" y="82">) -->
  <path fill="#1a8a8a" d="M117.17 82.24L117.17 82.24Q112.32 82.24 109.42 79.55Q106.51 76.86 106.51 71.39L106.51 71.39L106.51 56.75L109.92 56.75L109.92 71.06Q109.92 75.09 111.91 77.13Q113.90 79.17 117.50 79.17L117.50 79.17Q121.49 79.17 123.79 76.74Q126.10 74.32 126.10 70L126.10 70L126.10 56.75L129.50 56.75L129.50 82L126.24 82L126.24 77.44Q124.94 79.70 122.57 80.97Q120.19 82.24 117.17 82.24ZM142.46 82L139.06 82L139.06 56.75L142.32 56.75L142.32 61.65Q144.77 56.56 151.78 56.56L151.78 56.56L151.78 59.87Q151.54 59.87 151.34 59.85Q151.15 59.82 150.96 59.82L150.96 59.82Q146.98 59.82 144.72 62.25Q142.46 64.67 142.46 69.14L142.46 69.14L142.46 82ZM177.36 82L174.10 82L174.10 78.06Q172.94 79.98 170.74 81.11Q168.53 82.24 165.41 82.24L165.41 82.24Q161.14 82.24 158.66 80.20Q156.19 78.16 156.19 74.90L156.19 74.90Q156.19 72.98 157.13 71.34Q158.06 69.71 160.20 68.73Q162.34 67.74 165.94 67.74L165.94 67.74L173.95 67.74L173.95 66.21Q173.95 62.99 172.15 61.26Q170.35 59.54 166.80 59.54L166.80 59.54Q164.35 59.54 162.14 60.35Q159.94 61.17 158.40 62.51L158.40 62.51L156.86 59.97Q158.78 58.34 161.47 57.45Q164.16 56.56 167.14 56.56L167.14 56.56Q172.03 56.56 174.70 59.01Q177.36 61.46 177.36 66.35L177.36 66.35L177.36 82ZM173.95 74.42L173.95 74.42L173.95 70.29L166.03 70.29Q162.38 70.29 160.97 71.58Q159.55 72.88 159.55 74.80L159.55 74.80Q159.55 76.96 161.23 78.26Q162.91 79.55 165.94 79.55L165.94 79.55Q168.82 79.55 170.88 78.23Q172.94 76.91 173.95 74.42Z"/>
  <!-- 'pro' - outlined Montserrat SemiBold 48px (was <text x="218" y="82">) -->
  <path fill="#f5a623" d="M236.14 82.34L236.14 82.34Q233.70 82.34 231.58 81.47Q229.47 80.61 227.94 78.88L227.94 78.88L227.94 91.31L221.94 91.31L221.94 56.37L227.65 56.37L227.65 59.73Q229.18 57.86 231.37 56.97Q233.55 56.08 236.14 56.08L236.14 56.08Q239.89 56.08 242.82 57.69Q245.74 59.30 247.45 62.25Q249.15 65.20 249.15 69.18L249.15 69.18Q249.15 73.17 247.45 76.12Q245.74 79.07 242.82 80.70Q239.89 82.34 236.14 82.34ZM235.47 77.20L235.47 77.20Q237.63 77.20 239.34 76.22Q241.04 75.23 242.05 73.43Q243.06 71.63 243.06 69.18L243.06 69.18Q243.06 66.74 242.05 64.94Q241.04 63.14 239.34 62.15Q237.63 61.17 235.47 61.17L235.47 61.17Q233.31 61.17 231.58 62.15Q229.86 63.14 228.85 64.94Q227.84 66.74 227.84 69.18L227.84 69.18Q227.84 71.63 228.85 73.43Q229.86 75.23 231.58 76.22Q233.31 77.20 235.47 77.20ZM260.86 82L254.86 82L254.86 56.37L260.58 56.37L260.58 60.11Q263.22 56.08 269.70 56.08L269.70 56.08L269.70 61.79Q269.31 61.74 268.98 61.70Q268.64 61.65 268.30 61.65L268.30 61.65Q264.90 61.65 262.88 63.64Q260.86 65.63 260.86 69.57L260.86 69.57L260.86 82ZM286.54 82.34L286.54 82.34Q282.61 82.34 279.54 80.63Q276.46 78.93 274.69 75.98Q272.91 73.02 272.91 69.18L272.91 69.18Q272.91 65.34 274.69 62.39Q276.46 59.44 279.54 57.76Q282.61 56.08 286.54 56.08L286.54 56.08Q290.53 56.08 293.62 57.76Q296.72 59.44 298.47 62.39Q300.22 65.34 300.22 69.18L300.22 69.18Q300.22 73.02 298.47 75.98Q296.72 78.93 293.62 80.63Q290.53 82.34 286.54 82.34ZM286.54 77.20L286.54 77.20Q289.86 77.20 292.02 75.04Q294.18 72.88 294.18 69.18L294.18 69.18Q294.18 65.49 292.02 63.33Q289.86 61.17 286.54 61.17L286.54 61.17Q284.38 61.17 282.68 62.15Q280.98 63.14 279.97 64.94Q278.96 66.74 278.96 69.18L278.96 69.18Q278.96 71.63 279.97 73.43Q280.98 75.23 282.68 76.22Q284.38 77.20 286.54 77.20Z"/>
  <!-- 'safety first' - outlined Montserrat Regular 17px (was <text x="190" y="108">) -->
  <path fill="#1a8a8a" d="M194.08 108.08L194.08 108.08Q192.97 108.08 191.99 107.77Q191.00 107.46 190.44 106.98L190.44 106.98L190.99 106.03Q191.51 106.45 192.36 106.74Q193.21 107.03 194.16 107.03L194.16 107.03Q195.44 107.03 196.00 106.63Q196.56 106.23 196.56 105.57L196.56 105.57Q196.56 105.08 196.25 104.80Q195.93 104.52 195.41 104.37Q194.90 104.23 194.28 104.12Q193.66 104.02 193.04 103.89Q192.43 103.75 191.91 103.49Q191.39 103.22 191.08 102.76Q190.76 102.31 190.76 101.54L190.76 101.54Q190.76 100.44 191.68 99.71Q192.60 98.99 194.30 98.99L194.30 98.99Q195.17 98.99 196.03 99.22Q196.90 99.45 197.46 99.82L197.46 99.82L196.94 100.79Q196.34 100.38 195.66 100.21Q194.98 100.03 194.30 100.03L194.30 100.03Q193.09 100.03 192.53 100.45Q191.97 100.88 191.97 101.51L191.97 101.51Q191.96 102.02 192.27 102.31Q192.58 102.59 193.10 102.76Q193.62 102.92 194.24 103.02Q194.86 103.12 195.48 103.27Q196.10 103.41 196.62 103.66Q197.14 103.90 197.45 104.35Q197.77 104.80 197.77 105.53L197.77 105.53Q197.77 106.69 196.80 107.39Q195.83 108.08 194.08 108.08ZM206.74 108L205.59 108L205.59 106.61Q205.18 107.29 204.40 107.69Q203.62 108.08 202.51 108.08L202.51 108.08Q201.00 108.08 200.12 107.36Q199.25 106.64 199.25 105.48L199.25 105.48Q199.25 104.80 199.58 104.23Q199.91 103.65 200.67 103.30Q201.42 102.95 202.70 102.95L202.70 102.95L205.54 102.95L205.54 102.41Q205.54 101.27 204.90 100.66Q204.26 100.04 203.00 100.04L203.00 100.04Q202.14 100.04 201.36 100.33Q200.57 100.62 200.03 101.10L200.03 101.10L199.49 100.20Q200.17 99.62 201.12 99.30Q202.07 98.99 203.12 98.99L203.12 98.99Q204.86 98.99 205.80 99.86Q206.74 100.72 206.74 102.46L206.74 102.46L206.74 108ZM205.54 105.31L205.54 105.31L205.54 103.85L202.73 103.85Q201.44 103.85 200.94 104.31Q200.44 104.77 200.44 105.45L200.44 105.45Q200.44 106.22 201.03 106.67Q201.63 107.13 202.70 107.13L202.70 107.13Q203.72 107.13 204.45 106.67Q205.18 106.20 205.54 105.31ZM211.44 108L210.23 108L210.23 100.08L208.63 100.08L208.63 99.06L210.23 99.06L210.23 97.95Q210.23 96.76 210.93 96.03Q211.62 95.30 212.93 95.30L212.93 95.30Q213.43 95.30 213.91 95.44Q214.39 95.57 214.72 95.86L214.72 95.86L214.31 96.76Q213.77 96.32 212.98 96.32L212.98 96.32Q211.40 96.32 211.40 98.00L211.40 98.00L211.40 99.06L214.16 99.06L214.16 100.08L211.44 100.08L211.44 108ZM219.58 108.08L219.58 108.08Q218.19 108.08 217.13 107.50Q216.08 106.91 215.48 105.88Q214.89 104.86 214.89 103.53L214.89 103.53Q214.89 102.20 215.46 101.17Q216.03 100.15 217.01 99.57Q218.00 98.99 219.26 98.99L219.26 98.99Q220.51 98.99 221.49 99.56Q222.47 100.13 223.03 101.16Q223.59 102.19 223.59 103.53L223.59 103.53Q223.59 103.61 223.58 103.71Q223.57 103.80 223.57 103.90L223.57 103.90L216.08 103.90Q216.15 104.82 216.61 105.53Q217.08 106.23 217.85 106.62Q218.63 107.01 219.61 107.01L219.61 107.01Q220.43 107.01 221.14 106.72Q221.84 106.44 222.35 105.84L222.35 105.84L223.03 106.62Q222.42 107.34 221.53 107.71Q220.65 108.08 219.58 108.08ZM216.09 103.00L216.09 103.00L222.44 103.00Q222.37 102.12 221.94 101.45Q221.52 100.79 220.82 100.41Q220.12 100.03 219.26 100.03L219.26 100.03Q218.39 100.03 217.70 100.40Q217.01 100.78 216.59 101.45Q216.16 102.12 216.09 103.00ZM228.88 108.08L228.88 108.08Q227.62 108.08 226.94 107.40Q226.26 106.71 226.26 105.48L226.26 105.48L226.26 100.08L224.66 100.08L224.66 99.06L226.26 99.06L226.26 97.10L227.47 97.10L227.47 99.06L230.19 99.06L230.19 100.08L227.47 100.08L227.47 105.42Q227.47 107.05 229.01 107.05L229.01 107.05Q229.81 107.05 230.34 106.59L230.34 106.59L230.77 107.46Q230.41 107.78 229.91 107.93Q229.41 108.08 228.88 108.08ZM233.03 111.38L233.03 111.38Q232.40 111.38 231.83 111.18Q231.26 110.97 230.85 110.57L230.85 110.57L231.41 109.67Q232.09 110.35 233.04 110.35L233.04 110.35Q233.64 110.35 234.07 110.01Q234.51 109.68 234.90 108.85L234.90 108.85L235.29 107.98L231.29 99.06L232.55 99.06L235.92 106.66L239.28 99.06L240.47 99.06L236.00 109.07Q235.44 110.40 234.71 110.89Q233.98 111.38 233.03 111.38ZM248.04 108L246.83 108L246.83 100.08L245.23 100.08L245.23 99.06L246.83 99.06L246.83 97.95Q246.83 96.76 247.53 96.03Q248.22 95.30 249.53 95.30L249.53 95.30Q250.03 95.30 250.51 95.44Q251.00 95.57 251.32 95.86L251.32 95.86L250.91 96.76Q250.37 96.32 249.58 96.32L249.58 96.32Q248.00 96.32 248.00 98.00L248.00 98.00L248.00 99.06L250.76 99.06L250.76 100.08L248.04 100.08L248.04 108ZM253.60 108L252.39 108L252.39 99.06L253.60 99.06L253.60 108ZM253.00 97.10L253.00 97.10Q252.63 97.10 252.37 96.85Q252.12 96.59 252.12 96.24L252.12 96.24Q252.12 95.90 252.37 95.64Q252.63 95.39 253.00 95.39L253.00 95.39Q253.38 95.39 253.63 95.62Q253.89 95.86 253.89 96.22L253.89 96.22Q253.89 96.59 253.63 96.85Q253.38 97.10 253.00 97.10ZM258.17 108L256.96 108L256.96 99.06L258.12 99.06L258.12 100.79Q258.99 98.99 261.47 98.99L261.47 98.99L261.47 100.16Q261.38 100.16 261.31 100.15Q261.25 100.15 261.18 100.15L261.18 100.15Q259.77 100.15 258.97 101.00Q258.17 101.86 258.17 103.44L258.17 103.44L258.17 108ZM266.18 108.08L266.18 108.08Q265.07 108.08 264.09 107.77Q263.10 107.46 262.54 106.98L262.54 106.98L263.08 106.03Q263.61 106.45 264.46 106.74Q265.31 107.03 266.26 107.03L266.26 107.03Q267.54 107.03 268.10 106.63Q268.66 106.23 268.66 105.57L268.66 105.57Q268.66 105.08 268.34 104.80Q268.03 104.52 267.51 104.37Q266.99 104.23 266.37 104.12Q265.75 104.02 265.14 103.89Q264.53 103.75 264.01 103.49Q263.49 103.22 263.18 102.76Q262.86 102.31 262.86 101.54L262.86 101.54Q262.86 100.44 263.78 99.71Q264.70 98.99 266.40 98.99L266.40 98.99Q267.26 98.99 268.13 99.22Q269.00 99.45 269.56 99.82L269.56 99.82L269.03 100.79Q268.44 100.38 267.76 100.21Q267.08 100.03 266.40 100.03L266.40 100.03Q265.19 100.03 264.63 100.45Q264.07 100.88 264.07 101.51L264.07 101.51Q264.05 102.02 264.37 102.31Q264.68 102.59 265.20 102.76Q265.72 102.92 266.34 103.02Q266.96 103.12 267.58 103.27Q268.20 103.41 268.72 103.66Q269.24 103.90 269.55 104.35Q269.87 104.80 269.87 105.53L269.87 105.53Q269.87 106.69 268.90 107.39Q267.93 108.08 266.18 108.08ZM274.91 108.08L274.91 108.08Q273.66 108.08 272.98 107.40Q272.30 106.71 272.30 105.48L272.30 105.48L272.30 100.08L270.70 100.08L270.70 99.06L272.30 99.06L272.30 97.10L273.50 97.10L273.50 99.06L276.22 99.06L276.22 100.08L273.50 100.08L273.50 105.42Q273.50 107.05 275.05 107.05L275.05 107.05Q275.85 107.05 276.38 106.59L276.38 106.59L276.80 107.46Q276.44 107.78 275.94 107.93Q275.44 108.08 274.91 108.08Z"/>
</svg>
